<?xml version="1.0" standalone="no"?>
<!DOCTYPE svg PUBLIC "-//W3C//DTD SVG 1.1//EN" "http://www.w3.org/Graphics/SVG/1.1/DTD/svg11.dtd" >
<!--
2013-9-30: Created.
-->
<svg>
<metadata>
Created by iconfont
</metadata>
<defs>

<font id="iconfont" horiz-adv-x="1024" >
  <font-face
    font-family="iconfont"
    font-weight="500"
    font-stretch="normal"
    units-per-em="1024"
    ascent="896"
    descent="-128"
  />
    <missing-glyph />
    
    <glyph glyph-name="x" unicode="x" horiz-adv-x="1001"
d="M281 543q-27 -1 -53 -1h-83q-18 0 -36.5 -6t-32.5 -18.5t-23 -32t-9 -45.5v-76h912v41q0 16 -0.5 30t-0.5 18q0 13 -5 29t-17 29.5t-31.5 22.5t-49.5 9h-133v-97h-438v97zM955 310v-52q0 -23 0.5 -52t0.5 -58t-10.5 -47.5t-26 -30t-33 -16t-31.5 -4.5q-14 -1 -29.5 -0.5
t-29.5 0.5h-32l-45 128h-439l-44 -128h-29h-34q-20 0 -45 1q-25 0 -41 9.5t-25.5 23t-13.5 29.5t-4 30v167h911zM163 247q-12 0 -21 -8.5t-9 -21.5t9 -21.5t21 -8.5q13 0 22 8.5t9 21.5t-9 21.5t-22 8.5zM316 123q-8 -26 -14 -48q-5 -19 -10.5 -37t-7.5 -25t-3 -15t1 -14.5
t9.5 -10.5t21.5 -4h37h67h81h80h64h36q23 0 34 12t2 38q-5 13 -9.5 30.5t-9.5 34.5q-5 19 -11 39h-368zM336 498v228q0 11 2.5 23t10 21.5t20.5 15.5t34 6h188q31 0 51.5 -14.5t20.5 -52.5v-227h-327z" />
    

    
    <glyph glyph-name="down" unicode="&#59005;" d="M792.14592 533.751808c-17.19296 17.19296-45.067264 17.19296-62.260224 0L535.460864 339.32697599999995 341.036032 533.751808c-17.19296 17.19296-45.067264 17.19296-62.260224 0-17.19296-17.19296-17.19296-45.067264 0-62.260224l224.449536-224.449536c0.357376-0.382976 0.676864-0.78848 1.0496-1.161216 8.610816-8.610816 19.900416-12.906496 31.18592-12.89216 11.285504-0.014336 22.575104 4.281344 31.18592 12.89216 0.372736 0.372736 0.692224 0.777216 1.048576 1.160192l224.45056 224.45056C809.33888 488.684544 809.33888 516.559872 792.14592 533.751808z"  horiz-adv-x="1024" />

    
    <glyph glyph-name="qq" unicode="&#58964;" d="M910.858 223.27800000000002c-18.835 109.494-97.937 181.226-97.937 181.226 11.302 99.415-30.13 117.046-30.13 117.046-8.718 307.585-273.041 302.201-278.595 302.054-5.551 0.148-269.911 5.531-278.593-302.053 0 0-41.435-17.63-30.135-117.046 0 0-79.096-71.733-97.93-181.226 0 0-10.059-185.007 90.396-22.655 0 0 22.605-61.656 64.032-117.046 0 0-74.084-25.183-67.797-90.61 0 0-2.522-72.982 158.198-67.962 0 0 112.995 8.798 146.896 56.63l29.87 0c33.901-47.832 146.893-56.63 146.893-56.63 160.687-5.02 158.199 67.962 158.199 67.962 6.254 65.427-67.798 90.61-67.798 90.61 41.432 55.39 64.032 117.046 64.032 117.046 100.42-162.352 90.401 22.654 90.401 22.654z"  horiz-adv-x="1024" />

    
    <glyph glyph-name="right" unicode="&#58953;" d="M624.865 383.75300000000004l-292.155 292.159c-12.28 12.27-12.28 32.186 0 44.457 12.27 12.28 32.186 12.28 44.457 0l314.388-314.388c12.28-12.27 12.28-32.186 0-44.457l-314.388-314.387c-6.136-6.14-14.183-9.211-22.228-9.211s-16.092 3.071-22.228 9.211c-12.28 12.27-12.28 32.186 0 44.457l292.155 292.16z"  horiz-adv-x="1024" />

    
    <glyph glyph-name="prev" unicode="&#58895;" d="M268.896 419.968L622.24 770.08c18.848 18.656 49.216 18.528 67.872-0.32 18.656-18.816 18.528-49.216-0.32-67.872l-319.456-316.576 318.176-321.056c18.656-18.816 18.528-49.216-0.32-67.872-9.344-9.28-21.568-13.92-33.792-13.92-12.352 0-24.704 4.736-34.08 14.208L270.208 350.01599999999996c-0.512 0.512-0.672 1.248-1.184 1.792-0.128 0.128-0.288 0.16-0.416 0.288C249.952 370.91200000000003 250.08 401.312 268.896 419.968z"  horiz-adv-x="1024" />

    
    <glyph glyph-name="next" unicode="&#58896;" d="M769.792 419.968L416.48 770.08c-18.848 18.656-49.216 18.528-67.872-0.32-18.656-18.816-18.528-49.216 0.32-67.872l319.456-316.576-318.176-321.056c-18.656-18.816-18.528-49.216 0.32-67.872 9.344-9.28 21.568-13.92 33.792-13.92 12.352 0 24.704 4.736 34.08 14.208l350.112 353.312c0.512 0.512 0.672 1.248 1.184 1.792 0.128 0.128 0.288 0.16 0.416 0.288C788.736 370.91200000000003 788.64 401.312 769.792 419.968z"  horiz-adv-x="1024" />

    
    <glyph glyph-name="position" unicode="&#58990;" d="M867.476107 637.089206c-19.442818 45.844118-47.174416 87.083357-82.58081 122.489752s-76.543304 63.137992-122.489752 82.58081c-47.481408 20.056801-97.930403 30.289863-150.016689 30.289863-51.983955 0-102.43295-10.233062-150.016689-30.289863-45.844118-19.442818-87.083357-47.174416-122.489752-82.58081-35.406394-35.406394-63.137992-76.543304-82.58081-122.489752-20.056801-47.481408-30.289863-97.930403-30.289863-150.016689 0-88.106664 61.500703-212.745359 182.967148-370.334513 88.311325-114.405633 175.087691-203.330942 178.771593-207.117175 12.995989-13.302981 34.485419-13.302981 47.583738 0 0 0 90.357937 92.711542 178.566932 207.219505 121.364115 157.589155 182.967148 282.125519 182.967148 370.334513C897.766994 539.1588019999999 887.533932 589.607798 867.476107 637.089206zM780.39275 334.59989299999995c-28.243251-52.393277-67.947532-111.847367-117.884874-176.72498-55.258535-71.836095-111.131053-134.462434-144.081513-170.175821-3.27458-3.479241-8.800433-3.479241-11.972683 0-32.848129 35.611056-88.413656 98.032734-143.67219 169.664168-49.937342 64.979944-89.743954 124.536364-118.089535 177.031972-33.871435 62.626339-50.960649 113.996311-50.960649 152.779615 0 85.139076 33.155121 165.16162 93.325525 225.434356 60.170404 60.170404 140.29528 93.325525 225.434356 93.325525s165.16162-33.155121 225.434356-93.325525c60.170404-60.170404 93.325525-140.29528 93.325525-225.434356C831.252091 448.493873 814.161854 397.123902 780.39275 334.59989299999995zM514.333138 673.6212370000001c-92.813872 0-168.33387-72.757071-168.33387-162.194032 0-42.97886 18.010189-85.548398 49.323359-116.759237 32.029484-31.927153 74.29203-49.52802 119.010511-49.52802 44.718481 0 86.981027 17.600867 119.010511 49.52802 31.31317 31.210839 49.323359 73.780377 49.323359 116.759237C682.667008 600.8641660000001 607.148034 673.6212370000001 514.333138 673.6212370000001zM514.333138 411.65485c-55.156204 0-101.818967 45.741787-101.818967 99.772354 0 52.8026 45.639456 95.67913 101.818967 95.67913s101.818967-42.87653 101.818967-95.67913C616.152105 457.294306 569.591673 411.65485 514.333138 411.65485z"  horiz-adv-x="1024" />

    
    <glyph glyph-name="iphone" unicode="&#58993;" d="M256.283967 825.264982l139.866515-180.601264 2.338255-3.108804c6.217608-8.820899 10.894118-18.679431 13.739932-28.563546 3.370771-11.664667 3.90289-23.594371 2.095731-36.056194-2.095731-12.195763-5.978155-23.354917-11.95631-33.478486l-1.541099-2.072195c-5.713119-9.326413-13.232372-17.642822-22.053272-24.391527l-2.869351-1.301645-67.966974-49.553603c-3.90596-9.857509-9.618055-31.406291 9.591449-58.109466 30.104645-43.335994 63.317071-83.563184 100.143814-120.416534 37.384445-36.826743 77.080539-70.039169 119.885438-100.143814 26.729781-18.679431 48.278563-13.497409 58.640562-9.086959l50.855248 70.308299 0 0c7.2798 9.881045 15.835663 17.904789 25.959232 24.149003 10.361999 5.951549 21.522176 10.126638 33.478486 11.664667l1.807159 0.26606c11.664667 1.541099 23.089881 0.77055 33.982976-2.335185l2.076288-0.531096c10.385535-3.111874 20.509103-8.027837 29.596062-15.307637l0 0.26606 180.598194-140.637064 2.842745-2.072195c9.090029-7.782244 16.341177-17.138332 21.548782-27.234271l0 0.239454c5.951549-11.398608 9.063423-23.860431 10.096962-37.09178 0.531096-13.232372-1.807159-25.693172-6.748704-37.888935l0.531096 0c-5.177929-11.664667-12.461823-22.319331-22.584368-31.406291-11.398608-10.894118-25.666566-22.053272-43.070958-32.68133l-1.807159-1.036609c-16.872273-9.591449-36.32123-19.210527-59.171658-26.463722-99.107205-32.94739-204.963115-26.995841-306.701241 6.748704-107.423615 35.790134-210.43678 102.747105-294.744931 187.346899-85.101213 84.839247-152.058185 187.320293-187.879018 295.276027-33.982976 101.71152-39.696094 207.567429-6.748704 306.701241 8.316409 23.860431 17.403369 43.841507 28.031427 60.712757l0 0.50449 0 0c10.388605 16.606213 21.282722 31.406291 31.91078 43.097564 9.618055 9.591449 20.246113 17.111726 31.671327 22.053272l3.374864 0.77055c10.628058 4.148483 22.557762 5.713119 34.488489 5.447059 12.995989-0.76748 25.959232-3.879354 37.118386-9.591449l2.072195-1.567705L256.283967 825.264982 256.283967 825.264982zM338.545506 599.520565L338.545506 599.520565 198.678992 780.096247c-1.036609 1.829671-2.842745 3.13234-4.649903 4.167926l-0.531096 0.239454c-2.069125 0.797156-4.676509 1.833765-6.748704 1.833765-2.842745 0-4.41045-0.531096-6.214539-0.531096l-1.039679-0.50449c-2.072195-0.797156-4.172019-2.338255-5.713119-4.14132-8.05035-8.319479-15.832594-18.176988-23.354917-31.143301l0 0c-7.785314-12.992919-15.062044-28.297486-21.282722-46.205345-27.76639-83.271542-22.053272-173.84949 6.751774-261.026992 32.17377-96.264461 92.886527-189.154058 170.20652-266.207991 77.080539-77.346599 169.970136-138.056286 266.234597-170.236196 87.708598-29.04143 177.728844-34.245965 261.030062-6.748704 17.373693 5.716188 32.17377 12.726859 44.63764 19.741623l1.538029 1.541099c12.726859 7.519254 23.354917 15.570627 31.143301 22.850427 1.829671 2.072195 3.105734 3.879354 4.14132 5.954619l0 0 0 0.26606c1.036609 1.564635 1.036609 4.14132 1.036609 6.745634 0 2.842745-0.50449 5.180999-1.541099 6.748704l0 0 0 0c-0.531096 2.072195-1.807159 3.108804-3.370771 4.41045l-1.305739 0.77055L729.049385 208.99008100000003l0.531096 0-0.531096 0c-1.036609 1.301645-3.374864 2.338255-4.915963 2.869351l-0.531096 0c-1.807159 0.50449-4.145413 0.50449-6.217608 0.50449l-0.26606 0c-2.604314-0.50449-4.676509-1.036609-6.217608-2.072195l0 0c-1.567705-0.77055-3.374864-2.577708-4.942569-4.676509l0 0 0 0-55.000662-75.486228c-2.869351-4.41045-7.280824-8.316409-11.929704-11.691273-0.26606 0-64.884776-45.409213-143.240355 9.591449-46.975894 32.711006-90.551342 69.03019-129.476887 108.460224-40.22719 39.191604-76.017324 82.792635-108.72219 129.742946-55.000662 78.621639-9.090029 142.975319-9.090029 142.975319 2.338255 4.145413 5.712095 7.785314 9.857509 10.894118l74.476225 54.496172 2.87242 1.807159c1.538029 1.301645 2.573615 2.338255 3.610224 3.90596l0.797156 1.039679c1.27504 1.564635 1.807159 3.63683 2.311649 5.709025 0 2.842745 0 4.676509-0.50449 6.748704-0.531096 1.541099-1.036609 3.108804-2.338255 4.145413L338.545506 599.520565 338.545506 599.520565zM256.283967 824.733886L256.283967 824.733886l0 0.531096L256.283967 824.733886 256.283967 824.733886zM256.283967 825.264982L256.283967 825.264982l0-0.531096L256.283967 825.264982 256.283967 825.264982z"  horiz-adv-x="1024" />

    
    <glyph glyph-name="mail" unicode="&#58995;" d="M66.445318 760.930745l0.537236 0 885.306194 0c20.72502 0 37.234019-16.510022 37.234019-37.234019l0-1.043772 0-674.54605c0-20.455891-16.510022-36.965913-37.234019-36.965913l-0.509606 0L66.445318 11.140989999999988c-20.697391 0-37.207413 16.510022-37.207413 36.965913l0 0.805342L29.237905 723.696726C29.236881 744.421746 45.746904 760.930745 66.445318 760.930745L66.445318 760.930745zM915.862117 655.02674L915.862117 655.02674 524.963243 263.865899c-8.643867-8.378831-22.281469-8.378831-31.194466 0L102.900601 655.02674l0-569.94983 812.960493 0L915.861094 655.02674 915.862117 655.02674zM885.442294 686.998919L885.442294 686.998919 133.289726 686.998919l376.210337-375.674125L885.442294 686.998919 885.442294 686.998919z"  horiz-adv-x="1024" />

    
    <glyph glyph-name="dianhua" unicode="&#58994;" d="M1005.441697 4.351332999999954c-21.082194-75.863626-159.126731-137.34252-309.66549-99.729806-151.278105 37.707842-302.811489 117.541538-424.710832 238.608816C150.191965 264.93581900000004 70.261937 416.404179 32.586607 567.841231-4.959879 718.445014 56.453991 856.298092 132.285105 877.506721c19.349427 5.350022 97.742964 13.968097 215.925108-196.672012 33.702851-60.678137 7.784806-57.79541-67.724801-180.878429-35.335673-57.506415 22.521148-135.610957 22.521148-135.610957s39.31056-61.863017 83.359436-106.009429c44.018772-44.211436 105.944405-83.294413 105.944405-83.294413s78.104542-57.667771 135.610957-22.683708c123.181759 75.415683 120.201497 101.620315 180.590638 67.629673C1019.439898 101.90163399999994 1010.695387 23.60563300000001 1005.441697 4.351332999999954L1005.441697 4.351332999999954z"  horiz-adv-x="1024" />

    
    <glyph glyph-name="sina" unicode="&#58983;" d="M2.778359 896v0 0zM763.377135 393.466074q-15.744776 3.155041-20.445007 9.433743t-1.57752 11.548515l3.15504 5.237482q1.04027 1.04027 2.114772 3.155041t4.197212 8.929773 4.733512 13.630005 2.61779 16.785046-0.5363 18.900768-6.311983 19.404738-13.126986 18.900768q-14.703556 14.703556-38.305506 18.900768t-47.202949 0.5363-44.582307-9.433744-34.612263-11.012215l-13.630005-6.311983q-10.507294-3.155041-17.323247-4.197213t-10.507294 0.5363-5.774733 3.155041-1.57752 7.352253 1.040269 9.970044 2.61779 13.126986 3.155041 14.167256q0 12.588784-1.57752 23.600048t-6.815003 24.641269-15.208476 22.023478-25.17947 13.630005-39.346727 3.155041-54.554251-12.588784q-36.727034-12.588784-74.494339-37.231004t-65.564564-51.397309-50.89429-51.935511-35.686765-40.924246l-11.548515-16.785046q-34.612263-45.120508-51.397309-90.240066t-15.744776-68.185207v-22.023479q6.311984-50.357039 30.952302-90.240065t58.750513-64.524295 80.269071-41.964516 88.662545-25.179471 89.703765-11.012215q77.651281-6.311984 161.042112 12.052485t155.269281 63.484025 101.25133 108.067283q17.826266 36.727034 18.364468 69.258758t-11.012215 52.97578-29.912032 36.190734-34.612263 23.09703-28.83753 9.433743zM443.405781 67.18368599999997q-113.303814-5.237482-192.500285 44.079288t-79.19457 124.852328q0 74.494338 78.691551 128.51229t193.036585 59.287764 193.036585-37.767304 78.69155-117.500075q0-75.53651-80.269071-135.864543t-191.459064-65.564565zM412.99073 357.813541q-30.415051-3.155041-54.554252-14.167256t-37.767304-25.17947-23.097029-30.415051-13.126986-31.993522-4.733512-28.837531-1.04027-20.445007l1.04027-8.393474v-4.197212q0-3.155041 2.114771-12.588784t5.774733-17.323248 12.052484-17.323247 19.941989-15.744777q69.258758-33.571993 129.04859-20.445007t96.517817 60.327083q14.703556 17.826266 19.404737 44.079287t-2.114771 52.975781-23.600048 48.779518-49.820739 34.109245-76.073761 6.815002zM375.221524 159.50524199999995q-6.311984-1.04027-12.052484-0.5363t-10.507294 2.114771-9.433744 3.65806-7.855272 5.774733-5.774733 7.352253-4.197212 8.393474-1.577521 9.970043q0 11.548515 6.311984 22.559779t17.323248 18.900768 24.641268 8.929774q9.433743 1.04027 18.364468-0.5363t15.208477-5.237482 11.012215-8.393474 6.815002-11.012215 2.114771-13.630005q0-11.548515-6.815002-22.023479t-18.364468-17.826266-25.179471-8.393474zM464.388039 235.04175199999997q-7.352253-5.237482-15.208476-4.733513t-11.012215 6.815003l-2.114771 4.197212q-1.04027 2.114771-1.04027 4.197213v4.197212q0 3.155041 1.04027 5.237482l2.114771 4.197212q1.04027 2.114771 3.155041 3.155041l3.155041 4.197213q8.393474 6.311984 16.248746 5.237482t11.012214-8.393474q3.155041-4.197212 2.617791-9.433744t-3.155041-9.970043-6.815003-8.929774zM836.831204 454.331358q6.311984 0 11.548515 3.155041t8.393474 7.855272 4.197212 9.970043q1.04027 1.04027 1.04027 3.155041 12.588784 119.615797-83.929984 136.400843-28.334511 5.237482-52.471811 1.04027-7.352253 0-12.588784-3.65806t-8.929774-9.433743-3.658059-12.052485q0-10.507294 7.352253-17.826266t17.826266-7.352253q81.847542 18.900768 88.125294-52.471811 2.114771-17.826266-2.114771-33.571993 0-10.507294 7.352253-17.826267t17.826267-7.352253zM819.004938 750.164462q-46.160778 10.507294-123.812059-4.197212-1.04027 0-2.114771-1.04027l-1.04027-2.114771-1.04027-1.040269q-11.548515-3.155041-18.900768-13.126986t-7.352253-21.518559q0-15.744776 10.507294-26.21974t25.179471-10.507294h3.155041q1.04027 0 4.733512 1.04027t7.855272 1.57752 8.929774 2.114771 8.393474 3.155041 14.167255 1.577521 25.715771-1.577521 33.571993-7.855272 36.727034-15.744776 36.727035-26.21974 31.993522-38.808525q27.294242-61.906505 10.507294-119.615797 0-1.04027-0.5363-2.114771t-1.57752-5.237482-2.114772-7.855272-2.114771-9.433744-1.04027-9.970043q0-9.433743 5.237482-15.744776t13.126987-8.929774 18.364468-2.61779q29.375732 0 34.612263 35.686765 12.588784 40.924247 14.167255 78.15525t-5.237482 65.564565-20.445007 52.97578-31.489552 41.964517-39.883026 31.489552-42.501768 22.559778-42.501767 13.630005z"  horiz-adv-x="1049" />

    
    <glyph glyph-name="prev-btn" unicode="&#59644;" d="M511.34464-126.70975999999996c282.97216 0 511.36512 229.49888 511.36512 511.36512C1022.70976 666.50112 793.1904 896 511.34464 896 229.49888 896 0 666.50112 0 384.65536c0-281.86624 228.39296-511.36512 511.34464-511.36512z m-180.46976 539.21792l254.01344 255.11936c7.7824 7.7824 17.8176 11.14112 27.8528 11.14112a39.0144 39.0144 0 0 0 27.8528-66.84672L413.2864 384.65536l226.16064-223.92832c15.60576-15.60576 15.60576-40.12032 0-54.59968-15.58528-15.58528-40.09984-15.58528-54.5792 0L330.87488 357.90848000000005c-7.7824 7.7824-11.14112 16.71168-11.14112 27.8528 0 8.9088 3.33824 18.944 11.14112 26.74688z"  horiz-adv-x="1024" />

    
    <glyph glyph-name="tel" unicode="&#59088;" d="M344.436364 528.290909c51.2 46.545455 93.090909 79.127273 4.654545 181.527273-88.436364 107.054545-144.290909 23.272727-190.836364-23.272727-55.854545-51.2-4.654545-256 195.49091-451.49091s400.290909-246.690909 456.145454-195.490909c46.545455 46.545455 130.327273 102.4 23.272727 186.181819-107.054545 83.781818-139.636364 41.890909-186.181818-4.654546-37.236364-32.581818-121.018182 37.236364-195.490909 107.054546-69.818182 79.127273-144.290909 167.563636-107.054545 200.145454z"  horiz-adv-x="1024" />

    
    <glyph glyph-name="close" unicode="&#59040;" d="M581.828368 384.840134L946.816107 749.827873c18.522865 18.526959 18.522865 48.557926 0 67.074651l-1.974981 1.974981c-18.516726 18.522865-48.552809 18.522865-67.074652 0L512.777713 453.895907 147.788951 818.882622c-18.526959 18.522865-48.557926 18.522865-67.075675 0l-1.974981-1.974981c-18.522865-18.516726-18.522865-48.552809 0-67.074652l364.982622-364.992855L78.733179 19.851372999999967c-18.522865-18.521842-18.522865-48.557926 0-67.075675l1.974981-1.974981c18.522865-18.522865 48.553833-18.522865 67.075675 0l364.992854 364.987738L877.765451-49.19928300000004c18.521842-18.522865 48.557926-18.522865 67.074651 0l1.974981 1.974981c18.522865 18.517749 18.522865 48.552809 0 67.075675L581.828368 384.840134z"  horiz-adv-x="1024" />

    
    <glyph glyph-name="youxiang" unicode="&#58906;" d="M509.9 410.3L919.9 663.7c-16.1 28.1-46.4 47-81 47H185.1c-39.7 0-73.6-24.7-87.1-59.6l411.9-240.8zM91.8 601v-450.5c0-51.5 41.8-93.4 93.4-93.4h653.7c51.5 0 93.4 41.8 93.4 93.4V616.1L512.7 357.4 91.8 601z"  horiz-adv-x="1024" />

    
    <glyph glyph-name="wechat" unicode="&#59027;" d="M669.03 578.604c10.18 0 20.235-0.748 30.237-1.865C672.1 703.2719999999999 536.831 797.269 382.415 797.269 209.797 797.27 68.38 679.61 68.38 530.203c0-86.242 47.044-157.061 125.674-211.988l-31.406-94.468L272.403 278.79999999999995c39.303-7.781 70.81-15.765 110.01-15.765 9.85 0 19.626 0.482 29.324 1.243-6.144 20.996-9.698 42.983-9.698 65.793 0.002 137.196 117.806 248.533 266.99 248.533z m-168.862 85.14c23.639 0 39.302-15.55 39.302-39.186 0-23.536-15.664-39.3-39.302-39.3-23.536 0-47.147 15.765-47.147 39.3 0 23.635 23.612 39.185 47.147 39.185z m-219.765-78.487c-23.538 0-47.3 15.765-47.3 39.3 0 23.635 23.764 39.185 47.3 39.185 23.534 0 39.2-15.55 39.2-39.185 0-23.535-15.666-39.3-39.2-39.3zM955.618 333.85299999999995c0 125.543-125.622 227.882-266.734 227.882-149.413 0-267.09-102.339-267.09-227.882 0-125.77 117.677-227.88 267.09-227.88 31.279 0 62.838 7.898 94.243 15.766l86.12-47.17-23.612 78.473c63.04 47.286 109.983 109.993 109.983 180.81z m-353.311 39.289c-15.639 0-31.431 15.549-31.431 31.416 0 15.652 15.792 31.405 31.43 31.405 23.74 0 39.304-15.754 39.304-31.405 0-15.867-15.563-31.416-39.303-31.416z m172.72 0c-15.538 0-31.201 15.549-31.201 31.416 0 15.652 15.664 31.405 31.202 31.405 23.536 0 39.3-15.754 39.3-31.405 0.001-15.867-15.764-31.416-39.3-31.416z"  horiz-adv-x="1024" />

    
    <glyph glyph-name="next-btn" unicode="&#58928;" d="M511.34464 896C228.39296 896 0 666.50112 0 384.65536c0-281.86624 229.49888-511.36512 511.34464-511.36512 281.86624 0 511.36512 229.49888 511.36512 511.36512C1022.70976 666.50112 794.3168 896 511.34464 896z m180.49024-539.19744L437.82144 101.68320000000006c-7.7824-7.80288-17.8176-11.14112-27.8528-11.14112-10.0352 0-20.04992 3.33824-27.8528 11.14112a39.0144 39.0144 0 0 0 0 55.7056l227.26656 227.26656-226.14016 223.90784c-15.60576 15.60576-15.60576 40.12032 0 54.59968 15.58528 15.58528 40.09984 15.58528 54.5792 0l254.01344-251.78112c7.7824-7.7824 11.14112-16.71168 11.14112-27.8528 0-8.9088-3.33824-18.944-11.14112-26.7264z"  horiz-adv-x="1024" />

    
    <glyph glyph-name="arrow" unicode="&#59181;" d="M755.072 350.528l-171.648-171.648a32 32 0 0 1 45.248-45.248l226.304 226.272a31.904 31.904 0 0 1 0 45.248l-226.304 226.272a32 32 0 0 1-45.248-45.248l171.648-171.648H213.344a32 32 0 0 1 0-64h541.76z"  horiz-adv-x="1024" />

    
    <glyph glyph-name="up" unicode="&#58881;" d="M512.133 496.483l-292.16-292.155c-12.27-12.28-32.186-12.28-44.457 0-12.28099999 12.27-12.281 32.186 0 44.457l314.388 314.388c12.27 12.28 32.186 12.28 44.457 0l314.387-314.388c6.14-6.136 9.211-14.183 9.211-22.228s-3.071-16.092-9.211-22.228c-12.27-12.28-32.186-12.28-44.457 0l-292.159 292.155z"  horiz-adv-x="1024" />

    
    <glyph glyph-name="zuobiao" unicode="&#58883;" d="M512 896C296.082 896 121.045 720.9639999999999 121.045 505.045c0-41.136 6.352-80.788 18.135-118.031C189.229 228.78499999999997 512-128 512-128s322.771 356.785 372.821 515.012c11.782 37.243 18.134 76.897 18.134 118.036C902.955 720.9639999999999 727.919 896 512 896z m0-543.609c-84.31 0-152.659 68.345-152.659 152.657 0 84.31 68.35 152.657 152.659 152.657 84.311 0 152.66-68.347 152.66-152.657 0-84.313-68.349-152.657-152.66-152.657z"  horiz-adv-x="1024" />

    


  </font>
</defs>
</svg>
